<svg width="70" height="91" viewBox="0 0 70 91" fill="none" xmlns="http://www.w3.org/2000/svg">
<path fill-rule="evenodd" clip-rule="evenodd" d="M35.1989 43.4055C22.085 43.4055 11.4384 54.0524 11.4384 67.166C11.4384 80.2799 22.0854 90.9265 35.1989 90.9265C48.3125 90.9265 58.9594 80.2795 58.9594 67.166C58.9594 54.0521 48.3125 43.4055 35.1989 43.4055ZM35.1989 47.7255C45.9283 47.7255 54.6398 56.437 54.6398 67.1664C54.6398 77.8957 45.9283 86.6072 35.1989 86.6072C24.4696 86.6072 15.758 77.8957 15.758 67.1664C15.758 56.437 24.4696 47.7255 35.1989 47.7255ZM36.3091 52.3542C35.6264 51.942 34.7708 51.942 34.0888 52.3542L23.2885 58.8345C22.6362 59.2236 22.2384 59.9274 22.2384 60.6861V73.6466C22.2384 74.4046 22.6361 75.109 23.2885 75.4982L34.0888 81.9785C34.7715 82.3907 35.6271 82.3907 36.3091 81.9785L47.1094 75.4982C47.7617 75.109 48.1595 74.4053 48.1595 73.6466V60.6861C48.1595 59.9281 47.7617 59.2236 47.1094 58.8345L36.3091 52.3542ZM54.6398 43.4048V32.6045C54.6398 31.4119 53.6721 30.4442 52.4795 30.4442H50.6113L56.8002 23.0179L62.9891 30.4442H61.1209C59.9282 30.4442 58.9605 31.4119 58.9605 32.6045V54.2061C58.9605 55.3988 59.9282 56.3665 61.1209 56.3665C62.3135 56.3665 63.2812 55.3988 63.2812 54.2061V34.7652H67.6012C68.4394 34.7652 69.2017 34.2814 69.5582 33.5212C69.9126 32.7633 69.7984 31.8664 69.2603 31.2228L58.46 18.2622C58.0499 17.7696 57.4424 17.4847 56.8009 17.4847C56.1594 17.4847 55.5526 17.7696 55.1418 18.2622L44.3415 31.2228C43.8034 31.8665 43.6891 32.7626 44.0435 33.5212C44.4001 34.2814 45.1624 34.7652 46.0006 34.7652H50.3205V43.4059C50.3205 44.5985 51.2882 45.5662 52.4809 45.5662C53.6735 45.5662 54.6412 44.5985 54.6412 43.4059L54.6398 43.4048ZM11.4385 54.205V32.6034C11.4385 31.4108 10.4708 30.4431 9.27812 30.4431H7.40994L13.5988 23.0168L19.7877 30.4431H17.9195C16.7269 30.4431 15.7592 31.4108 15.7592 32.6034V43.4037C15.7592 44.5963 16.7269 45.564 17.9195 45.564C19.1121 45.564 20.0799 44.5963 20.0799 43.4037V34.763H24.3998C25.238 34.763 26.0003 34.2791 26.3569 33.519C26.7113 32.761 26.597 31.8642 26.0589 31.2205L15.2586 18.2599C14.8485 17.7674 14.241 17.4825 13.5995 17.4825C12.958 17.4825 12.3512 17.7674 11.9404 18.2599L1.14012 31.2205C0.602037 31.8642 0.48776 32.7603 0.84214 33.519C1.1987 34.2791 1.96101 34.763 2.79919 34.763H7.11914V54.2039C7.11914 55.3965 8.08686 56.3643 9.27949 56.3643C10.4721 56.3643 11.4398 55.3965 11.4398 54.2039L11.4385 54.205ZM33.0401 39.0841V15.3236C33.0401 14.131 32.0724 13.1632 30.8797 13.1632H29.0116L35.2004 5.73701L41.3893 13.1632H39.5211C38.3285 13.1632 37.3608 14.131 37.3608 15.3236V39.0841C37.3608 40.2767 38.3285 41.2444 39.5211 41.2444C40.7138 41.2444 41.6815 40.2767 41.6815 39.0841V17.4825H46.0014C46.8397 17.4825 47.602 16.9986 47.9585 16.2385C48.3129 15.4805 48.1986 14.5837 47.6605 13.94L36.8602 0.979392C36.4502 0.486852 35.8426 0.201904 35.2011 0.201904C34.5596 0.201904 33.9528 0.486871 33.542 0.979392L22.7417 13.94C22.2037 14.5837 22.0894 15.4798 22.4438 16.2385C22.8003 16.9986 23.5626 17.4825 24.4008 17.4825H28.7208V39.0841C28.7208 40.2767 29.6885 41.2444 30.8811 41.2444C32.0737 41.2444 33.0415 40.2767 33.0415 39.0841H33.0401Z" fill="url(#paint0_linear_20_1774)"/>
<defs>
<linearGradient id="paint0_linear_20_1774" x1="10.8438" y1="-14.6805" x2="108.536" y2="10.0624" gradientUnits="userSpaceOnUse">
<stop stop-color="#FF56BB"/>
<stop offset="1" stop-color="#FF8F77"/>
</linearGradient>
</defs>
</svg>
